<?xml version="1.0" encoding="UTF-8"?>
<!DOCTYPE svg PUBLIC "-//W3C//DTD SVG 1.1//EN" "http://www.w3.org/Graphics/SVG/1.1/DTD/svg11.dtd">
<!-- Creator: Corel DESIGNER -->
<svg xmlns="http://www.w3.org/2000/svg" xml:space="preserve" width="700px" height="632px" style="shape-rendering:geometricPrecision; text-rendering:geometricPrecision; image-rendering:optimizeQuality; fill-rule:evenodd; clip-rule:evenodd"
viewBox="0 0 700 632.143"
 xmlns:xlink="http://www.w3.org/1999/xlink">
 <defs>
  <style type="text/css">
   <![CDATA[
    .str0 {stroke:#1F1A17;stroke-width:2.9761;stroke-linecap:round;stroke-linejoin:round}
    .str2 {stroke:#B35D2D;stroke-width:2.9761;stroke-linecap:round;stroke-linejoin:round}
    .str1 {stroke:#1F1A17;stroke-width:2.9761;stroke-linecap:round;stroke-linejoin:round;stroke-dasharray:7.440101 7.440101}
    .fil4 {fill:none}
    .fil6 {fill:#1F1A17}
    .fil0 {fill:white}
    .fil2 {fill:#95989C}
    .fil1 {fill:#B25D2D}
    .fil3 {fill:#CCCED2}
    .fil5 {fill:#1F1A17;fill-rule:nonzero}
    .fnt0 {font-weight:normal;font-size:49.6032;font-family:'DejaVu Sans'}
    .fnt1 {font-style:italic;font-weight:normal;font-size:49.6032;font-family:'DejaVu Sans'}
   ]]>
  </style>
 </defs>
 <g id="Layer_x0020_1">
  <metadata id="CorelCorpID_0Corel-Layer"/>
  <rect class="fil0" x="-0.000281215" y="-0.000281215" width="700.001" height="632.143"/>
  <text x="51.5939" y="329.459"  class="fil1 fnt0">a</text>
  <text x="50.2466" y="418.742"  class="fil1 fnt0">b</text>
  <text x="53.0759" y="479.459"  class="fil1 fnt0">c</text>
  <g id="_38529152">
   <polygon id="_38358544" class="fil2 str0" points="179.007,502.88 469.624,339.94 309.116,277.925 "/>
   <polygon id="_38358232" class="fil3 str0" points="343.163,328.996 508.535,191.591 560.822,443.298 "/>
   <polyline id="_38342960" class="fil4 str1" points="374.312,303.115 469.624,339.94 418.542,368.58 "/>
  </g>
  <g>
   <path class="fil5" d="M105.138 582.509l0 2.97638 -0.0764904 -0.0019685 -0.0756468 -0.0056243 -0.0745219 -0.0095613 -0.0731159 -0.0132171 -0.071991 -0.0165917 -0.0705849 -0.0199663 -0.0691789 -0.0233408 -0.0677728 -0.0267154 -0.0658043 -0.0298088 -0.064117 -0.0329021 -0.0624297 -0.0357143 -0.0604612 -0.0388076 -0.0582115 -0.0416198 -0.056243 -0.0441507 -0.0539933 -0.0466817 -0.0517435 -0.0492126 -0.0492126 -0.0517435 -0.0466817 -0.0539933 -0.0441507 -0.056243 -0.0416198 -0.0582115 -0.0388076 -0.0604612 -0.0357143 -0.0624297 -0.0329021 -0.064117 -0.0298088 -0.0658043 -0.0267154 -0.0677728 -0.0233408 -0.0691789 -0.0199663 -0.0705849 -0.0165917 -0.071991 -0.0132171 -0.0731159 -0.0095613 -0.0745219 -0.0056243 -0.0756468 -0.0019685 -0.0764904 0.0019685 -0.0764904 0.0056243 -0.0756468 0.0095613 -0.0745219 0.0132171 -0.0731159 0.0165917 -0.071991 0.0199663 -0.0705849 0.0233408 -0.0691789 0.0267154 -0.0677728 0.0298088 -0.0658043 0.0329021 -0.064117 0.0357143 -0.0624297 0.0388076 -0.0604612 0.0416198 -0.0582115 0.0441507 -0.056243 0.0466817 -0.0539933 0.0492126 -0.0517435 0.0517435 -0.0492126 0.0539933 -0.0466817 0.056243 -0.0441507 0.0582115 -0.0416198 0.0604612 -0.0388076 0.0624297 -0.0357143 0.064117 -0.0329021 0.0658043 -0.0298088 0.0677728 -0.0267154 0.0691789 -0.0233408 0.0705849 -0.0199663 0.071991 -0.0165917 0.0731159 -0.0132171 0.0745219 -0.0095613 0.0756468 -0.0056243 0.0764904 -0.0019685zm497.806 2.97638l-497.806 0 0 -2.97638 497.806 0 0 2.97638zm10.4708 -1.48819l-18.1102 6.31918 0.235096 -0.395107 0.21991 -0.394826 0.204443 -0.395107 0.189539 -0.394826 0.174353 -0.394826 0.159168 -0.395107 0.143982 -0.394826 0.128796 -0.395107 0.113892 -0.394826 0.0984252 -0.395107 0.0835208 -0.394826 0.068054 -0.394826 0.0531496 -0.395107 0.037964 -0.394826 0.0224972 -0.395107 0.0075928 -0.394826 -0.0075928 -0.394826 -0.0224972 -0.395107 -0.037964 -0.394826 -0.0531496 -0.395107 -0.068054 -0.394826 -0.0835208 -0.394826 -0.0984252 -0.395107 -0.113892 -0.394826 -0.128796 -0.395107 -0.143982 -0.394826 -0.159168 -0.395107 -0.174353 -0.394826 -0.189539 -0.394826 -0.204443 -0.395107 -0.21991 -0.394826 -0.235096 -0.395107 0 0 18.1102 6.31918zm-10.4708 1.48819l0 -2.97638 0.0764904 0.0019685 0.0756468 0.0056243 0.0745219 0.0095613 0.0731159 0.0132171 0.071991 0.0165917 0.0705849 0.0199663 0.0691789 0.0233408 0.0677728 0.0267154 0.0658043 0.0298088 0.064117 0.0329021 0.0624297 0.0357143 0.0604612 0.0388076 0.0582115 0.0416198 0.056243 0.0441507 0.0539933 0.0466817 0.0517435 0.0492126 0.0492126 0.0517435 0.0466817 0.0539933 0.0441507 0.056243 0.0416198 0.0582115 0.0388076 0.0604612 0.0357143 0.0624297 0.0329021 0.064117 0.0298088 0.0658043 0.0267154 0.0677728 0.0233408 0.0691789 0.0199663 0.0705849 0.0165917 0.071991 0.0132171 0.0731159 0.0095613 0.0745219 0.0056243 0.0756468 0.0019685 0.0764904 -0.0019685 0.0764904 -0.0056243 0.0756468 -0.0095613 0.0745219 -0.0132171 0.0731159 -0.0165917 0.071991 -0.0199663 0.0705849 -0.0233408 0.0691789 -0.0267154 0.0677728 -0.0298088 0.0658043 -0.0329021 0.064117 -0.0357143 0.0624297 -0.0388076 0.0604612 -0.0416198 0.0582115 -0.0441507 0.056243 -0.0466817 0.0539933 -0.0492126 0.0517435 -0.0517435 0.0492126 -0.0539933 0.0466817 -0.056243 0.0441507 -0.0582115 0.0416198 -0.0604612 0.0388076 -0.0624297 0.0357143 -0.064117 0.0329021 -0.0658043 0.0298088 -0.0677728 0.0267154 -0.0691789 0.0233408 -0.0705849 0.0199663 -0.071991 0.0165917 -0.0731159 0.0132171 -0.0745219 0.0095613 -0.0756468 0.0056243 -0.0764904 0.0019685z"/>
  </g>
  <text x="90.7947" y="70.3867"  class="fil6 fnt1">y</text>
  <text x="634.885" y="597.56"  class="fil6 fnt1">x</text>
  <text x="145.843" y="535.833"  class="fil6 fnt0">A</text>
  <text x="265.244" y="275.053"  class="fil6 fnt0">B</text>
  <text x="476.368" y="371.934"  class="fil6 fnt0">C</text>
  <text x="298.153" y="363.898"  class="fil6 fnt0">D</text>
  <text x="496.228" y="174.138"  class="fil6 fnt0">E</text>
  <text x="571.975" y="456.899"  class="fil6 fnt0">F</text>
  <line class="fil4 str2" x1="105.138" y1="319.711" x2="613.415" y2= "319.711" />
  <line class="fil4 str2" x1="105.138" y1="405.426" x2="613.415" y2= "405.426" />
  <line class="fil4 str2" x1="105.138" y1="469.711" x2="613.415" y2= "469.711" />
  <g>
   <path class="fil5" d="M103.65 583.997l2.97638 0 -0.0019685 0.0764904 -0.0056243 0.0756468 -0.0095613 0.0745219 -0.0132171 0.0731159 -0.0165917 0.071991 -0.0199663 0.0705849 -0.0233408 0.0691789 -0.0267154 0.0677728 -0.0298088 0.0658043 -0.0329021 0.064117 -0.0357143 0.0624297 -0.0388076 0.0604612 -0.0416198 0.0582115 -0.0441507 0.056243 -0.0466817 0.0539933 -0.0492126 0.0517435 -0.0517435 0.0492126 -0.0539933 0.0466817 -0.056243 0.0441507 -0.0582115 0.0416198 -0.0604612 0.0388076 -0.0624297 0.0357143 -0.064117 0.0329021 -0.0658043 0.0298088 -0.0677728 0.0267154 -0.0691789 0.0233408 -0.0705849 0.0199663 -0.071991 0.0165917 -0.0731159 0.0132171 -0.0745219 0.0095613 -0.0756468 0.0056243 -0.0764904 0.0019685 -0.0764904 -0.0019685 -0.0756468 -0.0056243 -0.0745219 -0.0095613 -0.0731159 -0.0132171 -0.071991 -0.0165917 -0.0705849 -0.0199663 -0.0691789 -0.0233408 -0.0677728 -0.0267154 -0.0658043 -0.0298088 -0.064117 -0.0329021 -0.0624297 -0.0357143 -0.0604612 -0.0388076 -0.0582115 -0.0416198 -0.056243 -0.0441507 -0.0539933 -0.0466817 -0.0517435 -0.0492126 -0.0492126 -0.0517435 -0.0466817 -0.0539933 -0.0441507 -0.056243 -0.0416198 -0.0582115 -0.0388076 -0.0604612 -0.0357143 -0.0624297 -0.0329021 -0.064117 -0.0298088 -0.0658043 -0.0267154 -0.0677728 -0.0233408 -0.0691789 -0.0199663 -0.0705849 -0.0165917 -0.071991 -0.0132171 -0.0731159 -0.0095613 -0.0745219 -0.0056243 -0.0756468 -0.0019685 -0.0764904zm2.97638 -470.25l0 470.25 -2.97638 0 0 -470.25 2.97638 0zm-1.48819 -10.4708l6.31918 18.1102 -0.395107 -0.235096 -0.394826 -0.21991 -0.395107 -0.204443 -0.394826 -0.189539 -0.394826 -0.174353 -0.395107 -0.159168 -0.394826 -0.143982 -0.395107 -0.128796 -0.394826 -0.113892 -0.395107 -0.0984252 -0.394826 -0.0835208 -0.394826 -0.068054 -0.395107 -0.0531496 -0.394826 -0.037964 -0.395107 -0.0224972 -0.394826 -0.0075928 -0.394826 0.0075928 -0.395107 0.0224972 -0.394826 0.037964 -0.395107 0.0531496 -0.394826 0.068054 -0.394826 0.0835208 -0.395107 0.0984252 -0.394826 0.113892 -0.395107 0.128796 -0.394826 0.143982 -0.395107 0.159168 -0.394826 0.174353 -0.394826 0.189539 -0.395107 0.204443 -0.394826 0.21991 -0.395107 0.235096 0 0 6.31918 -18.1102zm1.48819 10.4708l-2.97638 0 0.0019685 -0.0764904 0.0056243 -0.0756468 0.0095613 -0.0745219 0.0132171 -0.0731159 0.0165917 -0.071991 0.0199663 -0.0705849 0.0233408 -0.0691789 0.0267154 -0.0677728 0.0298088 -0.0658043 0.0329021 -0.064117 0.0357143 -0.0624297 0.0388076 -0.0604612 0.0416198 -0.0582115 0.0441507 -0.056243 0.0466817 -0.0539933 0.0492126 -0.0517435 0.0517435 -0.0492126 0.0539933 -0.0466817 0.056243 -0.0441507 0.0582115 -0.0416198 0.0604612 -0.0388076 0.0624297 -0.0357143 0.064117 -0.0329021 0.0658043 -0.0298088 0.0677728 -0.0267154 0.0691789 -0.0233408 0.0705849 -0.0199663 0.071991 -0.0165917 0.0731159 -0.0132171 0.0745219 -0.0095613 0.0756468 -0.0056243 0.0764904 -0.0019685 0.0764904 0.0019685 0.0756468 0.0056243 0.0745219 0.0095613 0.0731159 0.0132171 0.071991 0.0165917 0.0705849 0.0199663 0.0691789 0.0233408 0.0677728 0.0267154 0.0658043 0.0298088 0.064117 0.0329021 0.0624297 0.0357143 0.0604612 0.0388076 0.0582115 0.0416198 0.056243 0.0441507 0.0539933 0.0466817 0.0517435 0.0492126 0.0492126 0.0517435 0.0466817 0.0539933 0.0441507 0.056243 0.0416198 0.0582115 0.0388076 0.0604612 0.0357143 0.0624297 0.0329021 0.064117 0.0298088 0.0658043 0.0267154 0.0677728 0.0233408 0.0691789 0.0199663 0.0705849 0.0165917 0.071991 0.0132171 0.0731159 0.0095613 0.0745219 0.0056243 0.0756468 0.0019685 0.0764904z"/>
  </g>
 </g>
</svg>
