<?xml version="1.0" encoding="utf-8"?>
<!-- Generator: Adobe Illustrator 16.0.0, SVG Export Plug-In . SVG Version: 6.00 Build 0)  -->
<!DOCTYPE svg PUBLIC "-//W3C//DTD SVG 1.1//EN" "http://www.w3.org/Graphics/SVG/1.1/DTD/svg11.dtd">
<svg version="1.1" id="Layer_1" xmlns="http://www.w3.org/2000/svg" xmlns:xlink="http://www.w3.org/1999/xlink" x="0px" y="0px"
	 width="382.678px" height="70.41px" viewBox="0 0 382.678 70.41" enable-background="new 0 0 382.678 70.41" xml:space="preserve">
<rect x="21.885" y="11.688" fill="#FFFFFF" width="148.614" height="48.646"/>
<g>
	<path fill="#E81A37" d="M0,0v56.014L14.336,70.41H179.84V0H0z M54.682,49.624L43.637,38.532h-9.094h-6.626V20.785h6.626v11.093
		h8.848l11.045-11.093h9.371L49.571,35.083l14.481,14.542L54.682,49.624L54.682,49.624z M83.974,49.624h-6.627V20.785h6.627V49.624z
		 M131.095,27.442v5.469v4.438v2.217h-25.69v10.059h-6.627V39.566V32.91h6.627h19.066v-5.469H98.777v-6.657h25.694h6.624V27.442z
		 M151.925,49.624h-6.626V20.785h6.626V49.624z"/>
	<path fill="#FFFFFF" d="M202.839,41.086v-11.76h2.222v11.76H202.839z"/>
	<path fill="#FFFFFF" d="M223.139,41.086l-6.39-8.238h-0.077v8.238h-2.124v-11.76h2.302l6.207,7.947h0.081v-7.947h2.123v11.76
		H223.139z"/>
	<path fill="#FFFFFF" d="M237.563,41.086V31.12h-4.108v-1.794h10.435v1.794h-4.108v9.966H237.563z"/>
	<path fill="#FFFFFF" d="M252.081,41.086v-11.76h9.021v1.743h-6.798v3.213h5.876v1.743h-5.876v3.314h6.798v1.746H252.081z"/>
	<path fill="#FFFFFF" d="M278,41.086l-2.002-4.445h-0.04h-3.832v4.445h-2.222v-11.76h6.309c1.1,0,1.936,0.145,2.506,0.436
		c0.569,0.29,0.949,0.695,1.14,1.214c0.188,0.517,0.285,1.187,0.285,2.007c0,0.788-0.136,1.492-0.403,2.113
		c-0.269,0.62-0.802,1.051-1.603,1.289l2.222,4.701H278L278,41.086z M277.048,34.735c0.373-0.12,0.611-0.309,0.718-0.573
		c0.104-0.262,0.156-0.655,0.156-1.179c0-0.548-0.049-0.946-0.147-1.196s-0.324-0.431-0.677-0.545
		c-0.354-0.115-0.931-0.172-1.729-0.172h-3.243v3.846h3.164C276.088,34.915,276.673,34.855,277.048,34.735z"/>
	<path fill="#FFFFFF" d="M298.105,41.086l-1.198-2.839h-5.721l-1.159,2.839h-2.241l4.855-11.76h2.886l4.855,11.76H298.105z
		 M294.095,31.274h-0.099l-2.162,5.248h4.421L294.095,31.274z"/>
	<path fill="#FFFFFF" d="M315.368,41.155c-0.623,0.044-1.205,0.069-1.738,0.069c-1.641,0-2.846-0.168-3.618-0.498
		c-0.771-0.33-1.292-0.904-1.55-1.726c-0.266-0.821-0.396-2.084-0.396-3.795c0-1.708,0.13-2.974,0.396-3.795
		c0.258-0.821,0.778-1.397,1.55-1.726c0.772-0.33,1.978-0.495,3.618-0.495c0.547,0,1.129,0.026,1.738,0.085
		c0.607,0.057,1.107,0.126,1.503,0.205v1.623c-1.049-0.113-1.944-0.169-2.693-0.169c-1.283,0-2.174,0.084-2.672,0.254
		c-0.497,0.172-0.824,0.532-0.981,1.078c-0.157,0.547-0.237,1.527-0.237,2.94c0,1.412,0.08,2.394,0.237,2.94
		c0.157,0.545,0.484,0.906,0.981,1.078c0.498,0.168,1.389,0.254,2.672,0.254c1.024,0,1.945-0.058,2.771-0.17v1.655
		C316.515,41.046,315.987,41.107,315.368,41.155z"/>
	<path fill="#FFFFFF" d="M328.482,41.086V31.12h-4.104v-1.794h10.434v1.794h-4.11v9.966H328.482z"/>
	<path fill="#FFFFFF" d="M343.004,41.086v-11.76h2.219v11.76H343.004z"/>
	<path fill="#FFFFFF" d="M357.978,41.086l-4.618-11.76h2.3l3.75,9.538h0.099l3.734-9.538h2.241l-4.6,11.76H357.978z"/>
	<path fill="#FFFFFF" d="M373.658,41.086v-11.76h9.02v1.743h-6.799v3.213h5.873v1.743h-5.873v3.314h6.799v1.746H373.658z"/>
</g>
</svg>
