<svg xmlns:dc="http://purl.org/dc/elements/1.1/" xmlns:cc="http://creativecommons.org/ns#" xmlns:rdf="http://www.w3.org/1999/02/22-rdf-syntax-ns#" xmlns:svg="http://www.w3.org/2000/svg" xmlns="http://www.w3.org/2000/svg" xmlns:sodipodi="http://sodipodi.sourceforge.net/DTD/sodipodi-0.dtd" xmlns:inkscape="http://www.inkscape.org/namespaces/inkscape" width="1400" height="500" id="svg2" version="1.1" inkscape:version="0.91 r13725" sodipodi:docname="Ubisoft_2017.svg">
  <defs id="defs4"/>
  <sodipodi:namedview id="base" pagecolor="#ffffff" bordercolor="#666666" borderopacity="1.0" inkscape:pageopacity="0.0" inkscape:pageshadow="2" inkscape:zoom="0.3963665" inkscape:cx="682.12711" inkscape:cy="427.31002" inkscape:document-units="px" inkscape:current-layer="layer1" showgrid="false" fit-margin-left="0.5" fit-margin-bottom="0.5" fit-margin-top="0.5" fit-margin-right="0.5" inkscape:window-width="1366" inkscape:window-height="705" inkscape:window-x="-8" inkscape:window-y="-8" inkscape:window-maximized="1">
    <inkscape:grid type="xygrid" id="grid2996" empspacing="5" visible="true" enabled="true" snapvisiblegridlinesonly="true" originx="-424.86898px" originy="1614.3768px"/>
  </sodipodi:namedview>
  <metadata id="metadata7">
    <rdf:RDF>
      <cc:Work rdf:about="">
        <dc:format>image/svg+xml</dc:format>
        <dc:type rdf:resource="http://purl.org/dc/dcmitype/StillImage"/>
        <dc:title/>
      </cc:Work>
    </rdf:RDF>
  </metadata>
  <g inkscape:label="Layer 1" inkscape:groupmode="layer" id="layer1" transform="translate(-424.86898,-1751.993)">
    <g id="g3069" transform="matrix(1.019368,0,0,1.019368,900,800)" style="fill:#000000;fill-opacity:1">
      <path style="fill:#000000;fill-opacity:1;stroke:none" d="m -73,1108.2707 0,109.5 c 0,44.4603 30.308149,72.7986 74.4494774,72.7986 C 47.880043,1290.5693 76.3,1260.6852 76.3,1214.7707 l 0,-106.5 -39.3,0 0,104.5 c 0,25.0351 -12.607375,40.561 -35.1324042,40.561 C -22.81825,1253.3317 -33.7,1235.4773 -33.7,1214.7707 l 0,-106.5 z" id="path3021" inkscape:connector-curvature="0" sodipodi:nodetypes="ccccccccccc"/>
      <path inkscape:connector-curvature="0" style="fill:#000000;fill-opacity:1;stroke:none" d="m 95.40625,1109.7835 0,179 62.59375,0 c 34.66755,0 64.125,-17.6815 64.125,-52.75 0,-36.6055 -32.03125,-44.7187 -32.03125,-44.7187 0,0 23.71875,-6.5885 23.71875,-37.9063 0,-31.2966 -29.98003,-43.625 -55.8125,-43.625 l -62.59375,0 z m 39.59375,34 19,0 c 13.18676,0 21.625,6.9456 21.625,19.0313 0,10.8108 -7.15832,18.9687 -20.625,18.9687 l -20,0 0,-38 z m 0,66 21,0 c 19.74682,0 26.59375,10.1433 26.59375,22.25 0,14.0852 -8.85615,22.3438 -24.59375,22.3438 l -23,0 0,-44.5938 z" id="path3023"/>
      <path style="fill:#000000;fill-opacity:1;stroke:none" d="m 237,1109.7707 39.5,0 0,179 -39.5,0 z" id="path3025" inkscape:connector-curvature="0" sodipodi:nodetypes="ccccc"/>
      <path style="fill:#000000;fill-opacity:1;stroke:none" d="m 668,1288.7707 -39.5,0 0,-179 124,0 0,37 -84.5,0 0,41 77,0 0,30 -77,0 z" id="path3027" inkscape:connector-curvature="0" sodipodi:nodetypes="ccccccccccc"/>
      <path style="fill:#000000;fill-opacity:1;stroke:none" d="m 767,1109.7707 0,37 51,0 0,142 40,0 0,-142 50,0 0,-37 z" id="path3029" inkscape:connector-curvature="0"/>
      <path style="fill:#000000;fill-opacity:1;stroke:none" d="m 321.59315,1229.2514 -31.37879,22.9427 c 0,0 10.84287,39.6571 65.20165,39.6571 36.19952,0 62.83642,-21.1249 62.83642,-58.2636 0,-59.852 -83.68991,-47.1544 -83.68991,-77.9345 0,-8.1002 7.20405,-15.2557 20.49871,-15.2557 21.33132,0 29.43761,20.9255 29.43761,20.9255 l 31.38835,-22.0293 c 0,0 -12.2592,-32.6797 -59.24914,-32.6797 -38.61759,0 -59.13088,24.7752 -59.13088,50.3401 0,60.994 81.25241,47.7542 81.25241,79.7645 0,10.8027 -8.51239,18.7392 -21.77003,18.648 -26.2659,0 -35.3964,-26.1151 -35.3964,-26.1151 z" id="path3031" inkscape:connector-curvature="0" sodipodi:nodetypes="ccccccccccccc"/>
      <path id="path3033" d="m 520.25,1106.5312 c -46.51589,0 -67.25,25.25 -67.25,25.25 l 6,6 c 0,0 -30.09375,21.3757 -30.09375,67.2813 0,52.8212 40.73791,86.75 91.5625,86.75 59.05463,0 92.5625,-43.5743 92.5625,-92.5625 0,-52.2386 -38.25542,-92.7188 -92.78125,-92.7188 z m 0.84375,37.1563 c 31.53945,0 52,24.1062 52,55.4063 0,30.9746 -20.2164,55.75 -52,55.75 -31.40083,0 -52.03125,-21.9267 -52.03125,-51.0313 0,-26.4886 17.9375,-38.0313 17.9375,-38.0313 l -6.5,-6.5 c 0,0 13.83055,-15.5937 40.59375,-15.5937 z" style="fill:#000000;fill-opacity:1;stroke:none" inkscape:connector-curvature="0"/>
    </g>
    <path style="fill:#000000;fill-opacity:1;stroke:none;transform: translate(150px, 1000px) scale(0.5);" d="m 906.38517,1751.9931 c -206.79815,0 -296.06075,184.0724 -296.06075,184.0724 l 26.27535,18.8091 c 0,0 -33.06465,62.8794 -32.14966,143.5308 0,164.6388 131.05798,319.7314 323.98549,319.7314 175.268,0 320.05,-142.6564 320.05,-319.3268 0,-230.4181 -178.6812,-346.8169 -342.10043,-346.8169 z m 1.79408,56.1676 c 161.57115,0 286.94545,130.1997 286.94545,281.563 0,160.4552 -120.6792,272.0428 -261.30669,272.0428 -103.49757,0 -196.86263,-78.8169 -196.86263,-186.8792 0,-62.4148 33.17371,-105.9287 70.3474,-129.1193 l 5.44025,5.9031 c -10.1735,7.9602 -39.18153,54.5566 -39.18153,100.3557 0,85.0222 66.67469,143.9064 150.67816,143.9064 107.00614,0 178.37144,-91.2675 178.37144,-197.2383 0,-123.2963 -108.83335,-227.9709 -239.806,-227.9709 -72.44174,0 -133.92659,31.1544 -169.25613,58.6566 l -5.49812,-4.9769 c 46.22148,-71.2665 126.26416,-116.243 220.1284,-116.243 z m -48.21006,117.9499 c 83.57941,0 165.18001,55.2931 185.54811,133.7788 l -7.4081,2.8068 c -36.5716,-48.2943 -96.496,-88.3175 -167.25944,-88.3175 -130.21309,0 -198.59676,118.3234 -188.55751,217.1477 l -7.66848,2.8072 c 0,0 -14.38203,-31.734 -14.38203,-69.3637 0,-108.9705 89.48851,-198.8593 199.72745,-198.8593 z m 55.2419,136.7589 c 39.57074,0 71.21553,32.0725 71.21553,70.1451 0,31.5068 -20.22743,50.178 -20.22743,50.178 l 23.96029,16.7549 c 0,0 -23.75951,37.3009 -72.25715,37.3009 -46.39175,0 -87.42055,-37.4445 -87.42055,-87.7971 0,-51.8841 44.62896,-86.5818 84.72931,-86.5818 z" id="path3049" inkscape:connector-curvature="0"/>
  </g>
</svg>